<mxfile host="65bd71144e">
    <diagram id="kof0ZyimaDfnssK0Uzq7" name="Page-1">
        <mxGraphModel dx="1296" dy="826" grid="1" gridSize="10" guides="1" tooltips="1" connect="1" arrows="1" fold="1" page="1" pageScale="1" pageWidth="1100" pageHeight="1700" background="#383838" math="0" shadow="0">
            <root>
                <mxCell id="0"/>
                <mxCell id="1" parent="0"/>
                <mxCell id="8" value="" style="edgeStyle=orthogonalEdgeStyle;orthogonalLoop=1;jettySize=auto;html=1;sketch=1;" edge="1" parent="1" source="2" target="7">
                    <mxGeometry relative="1" as="geometry"/>
                </mxCell>
                <mxCell id="2" value="START" style="whiteSpace=wrap;html=1;rounded=1;sketch=1;fillColor=#09555B;strokeColor=#BAC8D3;fontColor=#EEEEEE;" vertex="1" parent="1">
                    <mxGeometry x="440" y="50" width="160" height="40" as="geometry"/>
                </mxCell>
                <mxCell id="29" value="" style="edgeStyle=orthogonalEdgeStyle;orthogonalLoop=1;jettySize=auto;html=1;sketch=1;" edge="1" parent="1" source="7" target="28">
                    <mxGeometry relative="1" as="geometry"/>
                </mxCell>
                <mxCell id="7" value="Read the subtitle file" style="shape=parallelogram;perimeter=parallelogramPerimeter;whiteSpace=wrap;html=1;fixedSize=1;sketch=1;fillColor=#09555B;strokeColor=#BAC8D3;fontColor=#EEEEEE;" vertex="1" parent="1">
                    <mxGeometry x="440" y="130" width="160" height="40" as="geometry"/>
                </mxCell>
                <mxCell id="17" value="" style="edgeStyle=orthogonalEdgeStyle;orthogonalLoop=1;jettySize=auto;html=1;sketch=1;" edge="1" parent="1" source="14" target="16">
                    <mxGeometry relative="1" as="geometry"/>
                </mxCell>
                <mxCell id="22" value="" style="edgeStyle=orthogonalEdgeStyle;orthogonalLoop=1;jettySize=auto;html=1;sketch=1;" edge="1" parent="1" source="14" target="21">
                    <mxGeometry relative="1" as="geometry"/>
                </mxCell>
                <mxCell id="14" value="filetype == ass&lt;br&gt;?" style="rhombus;whiteSpace=wrap;html=1;arcSize=0;sketch=1;fillColor=#09555B;strokeColor=#BAC8D3;fontColor=#EEEEEE;" vertex="1" parent="1">
                    <mxGeometry x="460" y="320" width="120" height="120" as="geometry"/>
                </mxCell>
                <mxCell id="16" value="Split subtitle file's subtitle content using regex and strore them in &lt;b&gt;info_content&lt;/b&gt;" style="whiteSpace=wrap;html=1;arcSize=0;sketch=1;fillColor=#09555B;strokeColor=#BAC8D3;fontColor=#EEEEEE;" vertex="1" parent="1">
                    <mxGeometry x="640" y="350" width="200" height="60" as="geometry"/>
                </mxCell>
                <mxCell id="18" value="YES" style="text;html=1;strokeColor=none;fillColor=none;align=center;verticalAlign=middle;whiteSpace=wrap;sketch=1;fontColor=#EEEEEE;" vertex="1" parent="1">
                    <mxGeometry x="580" y="360" width="40" height="20" as="geometry"/>
                </mxCell>
                <mxCell id="34" value="" style="edgeStyle=orthogonalEdgeStyle;orthogonalLoop=1;jettySize=auto;html=1;sketch=1;" edge="1" parent="1" source="21" target="33">
                    <mxGeometry relative="1" as="geometry"/>
                </mxCell>
                <mxCell id="21" value="Split subtitle file's script information content using regex and store them in &lt;b&gt;sub_content&lt;/b&gt;" style="whiteSpace=wrap;html=1;arcSize=0;sketch=1;fillColor=#09555B;strokeColor=#BAC8D3;fontColor=#EEEEEE;" vertex="1" parent="1">
                    <mxGeometry x="420" y="500" width="200" height="70" as="geometry"/>
                </mxCell>
                <mxCell id="23" value="NO" style="text;html=1;strokeColor=none;fillColor=none;align=center;verticalAlign=middle;whiteSpace=wrap;sketch=1;fontColor=#EEEEEE;" vertex="1" parent="1">
                    <mxGeometry x="520" y="460" width="40" height="20" as="geometry"/>
                </mxCell>
                <mxCell id="30" value="" style="edgeStyle=orthogonalEdgeStyle;orthogonalLoop=1;jettySize=auto;html=1;sketch=1;" edge="1" parent="1" source="28" target="14">
                    <mxGeometry relative="1" as="geometry"/>
                </mxCell>
                <mxCell id="28" value="sub_content = [ ]&lt;br&gt;info_content = [ ]&lt;br&gt;unwanted_lines = [ ]" style="whiteSpace=wrap;html=1;arcSize=0;sketch=1;fillColor=#09555B;strokeColor=#BAC8D3;fontColor=#EEEEEE;" vertex="1" parent="1">
                    <mxGeometry x="440" y="210" width="160" height="60" as="geometry"/>
                </mxCell>
                <mxCell id="32" value="" style="endArrow=classic;html=1;entryX=1;entryY=0.5;entryDx=0;entryDy=0;exitX=0.5;exitY=1;exitDx=0;exitDy=0;rounded=0;sketch=1;" edge="1" parent="1" source="16" target="21">
                    <mxGeometry width="50" height="50" relative="1" as="geometry">
                        <mxPoint x="720" y="460" as="sourcePoint"/>
                        <mxPoint x="770" y="410" as="targetPoint"/>
                        <Array as="points">
                            <mxPoint x="740" y="535"/>
                        </Array>
                    </mxGeometry>
                </mxCell>
                <mxCell id="36" value="" style="edgeStyle=orthogonalEdgeStyle;orthogonalLoop=1;jettySize=auto;html=1;sketch=1;" edge="1" parent="1" source="33" target="35">
                    <mxGeometry relative="1" as="geometry"/>
                </mxCell>
                <mxCell id="54" value="" style="edgeStyle=orthogonalEdgeStyle;orthogonalLoop=1;jettySize=auto;html=1;sketch=1;" edge="1" parent="1" source="33" target="53">
                    <mxGeometry relative="1" as="geometry"/>
                </mxCell>
                <mxCell id="33" value="subtitle in sub_content" style="rhombus;whiteSpace=wrap;html=1;arcSize=0;sketch=1;fillColor=#09555B;strokeColor=#BAC8D3;fontColor=#EEEEEE;" vertex="1" parent="1">
                    <mxGeometry x="465" y="640" width="110" height="110" as="geometry"/>
                </mxCell>
                <mxCell id="38" value="" style="edgeStyle=orthogonalEdgeStyle;orthogonalLoop=1;jettySize=auto;html=1;sketch=1;" edge="1" parent="1" source="35" target="37">
                    <mxGeometry relative="1" as="geometry"/>
                </mxCell>
                <mxCell id="35" value="split subtitle into timestamp and content" style="whiteSpace=wrap;html=1;arcSize=0;sketch=1;fillColor=#09555B;strokeColor=#BAC8D3;fontColor=#EEEEEE;" vertex="1" parent="1">
                    <mxGeometry x="440" y="800" width="160" height="60" as="geometry"/>
                </mxCell>
                <mxCell id="40" value="" style="edgeStyle=orthogonalEdgeStyle;orthogonalLoop=1;jettySize=auto;html=1;sketch=1;" edge="1" parent="1" source="37" target="39">
                    <mxGeometry relative="1" as="geometry"/>
                </mxCell>
                <mxCell id="37" value="Check the display duration using timestamp" style="whiteSpace=wrap;html=1;arcSize=0;sketch=1;fillColor=#09555B;strokeColor=#BAC8D3;fontColor=#EEEEEE;" vertex="1" parent="1">
                    <mxGeometry x="440" y="910" width="160" height="60" as="geometry"/>
                </mxCell>
                <mxCell id="42" value="" style="edgeStyle=orthogonalEdgeStyle;orthogonalLoop=1;jettySize=auto;html=1;sketch=1;" edge="1" parent="1" source="39" target="41">
                    <mxGeometry relative="1" as="geometry"/>
                </mxCell>
                <mxCell id="46" value="" style="edgeStyle=orthogonalEdgeStyle;orthogonalLoop=1;jettySize=auto;html=1;sketch=1;" edge="1" parent="1" source="39" target="45">
                    <mxGeometry relative="1" as="geometry"/>
                </mxCell>
                <mxCell id="39" value="display duration &amp;gt; max&lt;br&gt;&amp;nbsp;or &lt;br&gt;display duration &amp;lt; min" style="rhombus;whiteSpace=wrap;html=1;arcSize=0;sketch=1;fillColor=#09555B;strokeColor=#BAC8D3;fontColor=#EEEEEE;" vertex="1" parent="1">
                    <mxGeometry x="418.75" y="1040" width="202.5" height="200" as="geometry"/>
                </mxCell>
                <mxCell id="41" value="sub_content added to &lt;b&gt;unwanted_lines&lt;/b&gt;" style="whiteSpace=wrap;html=1;arcSize=0;sketch=1;fillColor=#09555B;strokeColor=#BAC8D3;fontColor=#EEEEEE;" vertex="1" parent="1">
                    <mxGeometry x="177.5" y="1110" width="120" height="60" as="geometry"/>
                </mxCell>
                <mxCell id="43" value="" style="endArrow=classic;html=1;exitX=0.5;exitY=0;exitDx=0;exitDy=0;entryX=0;entryY=0.5;entryDx=0;entryDy=0;rounded=0;sketch=1;" edge="1" parent="1" source="41" target="33">
                    <mxGeometry width="50" height="50" relative="1" as="geometry">
                        <mxPoint x="410" y="410" as="sourcePoint"/>
                        <mxPoint x="460" y="360" as="targetPoint"/>
                        <Array as="points">
                            <mxPoint x="238" y="695"/>
                        </Array>
                    </mxGeometry>
                </mxCell>
                <mxCell id="44" value="YES" style="text;html=1;align=center;verticalAlign=middle;resizable=0;points=[];autosize=1;strokeColor=none;sketch=1;fontColor=#EEEEEE;" vertex="1" parent="1">
                    <mxGeometry x="340" y="1120" width="40" height="20" as="geometry"/>
                </mxCell>
                <mxCell id="45" value="if &lt;br&gt;subtitle contains &lt;br&gt;pre defined words" style="rhombus;whiteSpace=wrap;html=1;arcSize=0;sketch=1;fillColor=#09555B;strokeColor=#BAC8D3;fontColor=#EEEEEE;" vertex="1" parent="1">
                    <mxGeometry x="434.37" y="1290" width="171.25" height="170" as="geometry"/>
                </mxCell>
                <mxCell id="47" value="NO" style="text;html=1;align=center;verticalAlign=middle;resizable=0;points=[];autosize=1;strokeColor=none;sketch=1;fontColor=#EEEEEE;" vertex="1" parent="1">
                    <mxGeometry x="525" y="1250" width="30" height="20" as="geometry"/>
                </mxCell>
                <mxCell id="48" value="" style="endArrow=classic;html=1;exitX=0;exitY=0.5;exitDx=0;exitDy=0;entryX=0.5;entryY=1;entryDx=0;entryDy=0;rounded=0;sketch=1;" edge="1" parent="1" source="45" target="41">
                    <mxGeometry width="50" height="50" relative="1" as="geometry">
                        <mxPoint x="350" y="1390" as="sourcePoint"/>
                        <mxPoint x="400" y="1340" as="targetPoint"/>
                        <Array as="points">
                            <mxPoint x="238" y="1375"/>
                        </Array>
                    </mxGeometry>
                </mxCell>
                <mxCell id="49" value="" style="endArrow=classic;html=1;rounded=0;sketch=1;" edge="1" parent="1">
                    <mxGeometry width="50" height="50" relative="1" as="geometry">
                        <mxPoint x="520" y="1480" as="sourcePoint"/>
                        <mxPoint x="240" y="1060" as="targetPoint"/>
                        <Array as="points">
                            <mxPoint x="120" y="1480"/>
                            <mxPoint x="120" y="1060"/>
                        </Array>
                    </mxGeometry>
                </mxCell>
                <mxCell id="50" value="" style="endArrow=none;html=1;entryX=0.5;entryY=1;entryDx=0;entryDy=0;sketch=1;" edge="1" parent="1" target="45">
                    <mxGeometry width="50" height="50" relative="1" as="geometry">
                        <mxPoint x="520" y="1480" as="sourcePoint"/>
                        <mxPoint x="540" y="1450" as="targetPoint"/>
                    </mxGeometry>
                </mxCell>
                <mxCell id="51" value="YES" style="text;html=1;align=center;verticalAlign=middle;resizable=0;points=[];autosize=1;strokeColor=none;sketch=1;fontColor=#EEEEEE;" vertex="1" parent="1">
                    <mxGeometry x="310" y="1350" width="40" height="20" as="geometry"/>
                </mxCell>
                <mxCell id="52" value="NO" style="text;html=1;align=center;verticalAlign=middle;resizable=0;points=[];autosize=1;strokeColor=none;sketch=1;fontColor=#EEEEEE;" vertex="1" parent="1">
                    <mxGeometry x="415" y="1460" width="30" height="20" as="geometry"/>
                </mxCell>
                <mxCell id="56" value="" style="edgeStyle=orthogonalEdgeStyle;orthogonalLoop=1;jettySize=auto;html=1;sketch=1;" edge="1" parent="1" source="53" target="55">
                    <mxGeometry relative="1" as="geometry"/>
                </mxCell>
                <mxCell id="53" value="Create new subtitle file without &lt;b&gt;unwanted_lines&lt;/b&gt;" style="whiteSpace=wrap;html=1;arcSize=0;sketch=1;fillColor=#09555B;strokeColor=#BAC8D3;fontColor=#EEEEEE;" vertex="1" parent="1">
                    <mxGeometry x="680" y="665" width="160" height="60" as="geometry"/>
                </mxCell>
                <mxCell id="55" value="END" style="whiteSpace=wrap;html=1;arcSize=18;rounded=1;glass=0;shadow=0;sketch=1;fillColor=#09555B;strokeColor=#BAC8D3;fontColor=#EEEEEE;" vertex="1" parent="1">
                    <mxGeometry x="680" y="800" width="160" height="40" as="geometry"/>
                </mxCell>
            </root>
        </mxGraphModel>
    </diagram>
</mxfile>